<?xml version="1.0" encoding="UTF-8"?>
<svg id="Layer_2" data-name="Layer 2" xmlns="http://www.w3.org/2000/svg" viewBox="0 0 90.17 118.44">
  <defs>
    <style>
      .cls-1 {
        fill: #fff;
      }
    </style>
  </defs>
  <g id="Layer_1-2" data-name="Layer 1">
    <g>
      <path class="cls-1" d="M39.13,73.63c0,3.14,2.55,5.69,5.69,5.69s5.69-2.55,5.69-5.69-2.55-5.68-5.69-5.68-5.69,2.54-5.69,5.68Zm8.53,0c0,1.57-1.27,2.84-2.84,2.84s-2.84-1.27-2.84-2.84,1.27-2.84,2.84-2.84,2.84,1.27,2.84,2.84Z"/>
      <path class="cls-1" d="M71.35,68.8c-2.86-3.41-8.33-6.99-14.28-10.62l-.03,13.64v1.79c-.02,3.1-1.07,6.17-3.18,8.44-2.3,2.48-5.61,4.01-9.27,3.95-6.47-.11-11.9-5.42-12.15-11.9-.26-7.04,5.38-12.84,12.36-12.84,2.55,0,4.91,.77,6.88,2.09,.29,.2,.7-.02,.7-.38V29.93c0-.26-.2-.49-.46-.54-4.13-.66-8.46-.76-12.89-.2C17.78,31.89,1.25,49.68,.07,71.09c-1.44,25.9,18.27,47.36,44.73,47.36,2.37,0,3.41-.18,5.69-.54,11.45-9.5,31.67-35.48,20.85-49.09Z"/>
      <path class="cls-1" d="M89.9,.08c-2.49,4.15-5.24,6.02-7.21,6.97-6.48,3.1-11.98-.3-19.11,3.21-.02,.01-.05,.03-.08,.04-3.62,1.8-5.82,5.58-5.83,9.62l-.02,8.96h0c.93,4.35,3.65,7.39,10.27,12.49,8.28,6.47,10.44,13.25,7.9,23.99-.37,.88-.31,1.9,.11,2.75,8.34,17.94-15.63,43.6-22.09,48.94,18.47-3.01,31.9-17.1,35.45-35.38v-.04c.4-1.94,.6-3.91,.61-5.89,.01-2.32,.02-4.64,.02-6.96,.08-22.88,.17-45.77,.25-68.64,0-.15-.2-.2-.27-.07Z"/>
      <path class="cls-1" d="M72.96,64.19c.12,.2,.42,.09,.42-.14,0-4.92-.23-7.31-2.14-10.61-2.7-4.74-7.71-8.59-14.13-10.99,0,9.27,10.33,12.91,15.85,21.74Z"/>
    </g>
  </g>
</svg>